<svg width="24" height="24" viewBox="0 0 24 24" fill="none" xmlns="http://www.w3.org/2000/svg">
<path fill-rule="evenodd" clip-rule="evenodd" d="M11.635 15C9.3351 15 7.3128 13.8058 6.15659 12C7.3128 10.1942 9.3351 9 11.635 9C13.9348 9 15.9571 10.1942 17.1133 12C15.9571 13.8058 13.9348 15 11.635 15ZM11.635 8C14.513 8 17.0124 9.6211 18.2699 12C17.0124 14.3789 14.513 16 11.635 16C8.75691 16 6.25749 14.3789 5 12C6.25749 9.6211 8.75691 8 11.635 8ZM11.6353 14C12.7398 14 13.6353 13.1046 13.6353 12C13.6353 10.8954 12.7398 10 11.6353 10C10.5307 10 9.63525 10.8954 9.63525 12C9.63525 13.1046 10.5307 14 11.6353 14Z" fill="black" fill-opacity="0.8"/>
</svg>
