<svg width="24" height="24" viewBox="0 0 24 24" fill="none" xmlns="http://www.w3.org/2000/svg">
<g clip-path="url(#clip0)">
<path fill-rule="evenodd" clip-rule="evenodd" d="M17.5085 11.8012C18.0639 11.2736 18.5436 10.6672 18.9295 10H17.7453C16.4798 11.8142 14.378 13 11.9999 13C9.62172 13 7.51992 11.8142 6.25446 10H5.07022C5.45619 10.6673 5.93589 11.2737 6.49134 11.8013L4.89648 13.3962L5.6036 14.1033L7.26094 12.4459C7.97166 12.9693 8.77213 13.378 9.63506 13.6447L9.01804 15.866L9.98156 16.1336L10.6078 13.8793C11.0598 13.9586 11.525 14 11.9999 14C12.4747 14 12.9398 13.9586 13.3919 13.8793L14.018 16.1336L14.9816 15.866L14.3646 13.6447C15.2276 13.3781 16.0281 12.9693 16.7389 12.4458L18.3965 14.1033L19.1036 13.3962L17.5085 11.8012Z" fill="black" fill-opacity="0.8"/>
</g>
<defs>
<clipPath id="clip0">
<rect width="16" height="16" fill="white" transform="translate(4 4)"/>
</clipPath>
</defs>
</svg>
